{
	"asset":{
		"generator":"Khronos glTF Blender I/O v3.5.30",
		"version":"2.0"
	},
	"extensionsUsed":[
		"KHR_materials_unlit"
	],
	"scene":0,
	"scenes":[
		{
			"name":"Scene",
			"nodes":[
				4
			]
		}
	],
	"nodes":[
		{
			"mesh":0,
			"name":"Object_2",
			"translation":[
				2.130866050720215e-06,
				0,
				0
			]
		},
		{
			"mesh":1,
			"name":"Object_3",
			"translation":[
				2.130866050720215e-06,
				0,
				0
			]
		},
		{
			"mesh":2,
			"name":"Object_4",
			"translation":[
				2.130866050720215e-06,
				0,
				0
			]
		},
		{
			"children":[
				0,
				1,
				2
			],
			"name":"model.obj.cleaner.materialmerger.gles"
		},
		{
			"children":[
				3
			],
			"name":"Sketchfab_model",
			"rotation":[
				-0.7068946957588196,
				0.01732352189719677,
				-0.017323516309261322,
				0.7068944573402405
			],
			"scale":[
				0.03791626915335655,
				0.03791627660393715,
				0.03791627660393715
			],
			"translation":[
				-1.126338005065918,
				0.18036019802093506,
				0
			]
		}
	],
	"materials":[
		{
			"doubleSided":true,
			"extensions":{
				"KHR_materials_unlit":{}
			},
			"name":"model_Material_u1_v1",
			"pbrMetallicRoughness":{
				"baseColorTexture":{
					"index":0,
					"texCoord":0
				},
				"metallicFactor":0,
				"roughnessFactor":0.9
			}
		}
	],
	"meshes":[
		{
			"name":"Object_0",
			"primitives":[
				{
					"attributes":{
						"POSITION":0,
						"TEXCOORD_0":1,
						"NORMAL":2
					},
					"indices":3,
					"material":0
				}
			]
		},
		{
			"name":"Object_1",
			"primitives":[
				{
					"attributes":{
						"POSITION":4,
						"TEXCOORD_0":5,
						"NORMAL":6
					},
					"indices":7,
					"material":0
				}
			]
		},
		{
			"name":"Object_2",
			"primitives":[
				{
					"attributes":{
						"POSITION":8,
						"TEXCOORD_0":9,
						"NORMAL":10
					},
					"indices":11,
					"material":0
				}
			]
		}
	],
	"textures":[
		{
			"sampler":0,
			"source":0
		}
	],
	"images":[
		{
			"mimeType":"image/jpeg",
			"name":"model_Material_u1_v1_baseColor",
			"uri":"compressed_material.jpg"
		}
	],
	"accessors":[
		{
			"bufferView":0,
			"componentType":5126,
			"count":56042,
			"max":[
				15.999089241027832,
				12.039661407470703,
				49.317626953125
			],
			"min":[
				-11.888962745666504,
				-14.98206901550293,
				11.028371810913086
			],
			"type":"VEC3"
		},
		{
			"bufferView":1,
			"componentType":5126,
			"count":56042,
			"type":"VEC2"
		},
		{
			"bufferView":2,
			"componentType":5126,
			"count":56042,
			"type":"VEC3"
		},
		{
			"bufferView":3,
			"componentType":5123,
			"count":231684,
			"type":"SCALAR"
		},
		{
			"bufferView":4,
			"componentType":5126,
			"count":45066,
			"max":[
				16.36157989501953,
				12.003143310546875,
				49.68553161621094
			],
			"min":[
				-11.979711532592773,
				-13.942005157470703,
				11.86214828491211
			],
			"type":"VEC3"
		},
		{
			"bufferView":5,
			"componentType":5126,
			"count":45066,
			"type":"VEC2"
		},
		{
			"bufferView":6,
			"componentType":5126,
			"count":45066,
			"type":"VEC3"
		},
		{
			"bufferView":7,
			"componentType":5123,
			"count":151668,
			"type":"SCALAR"
		},
		{
			"bufferView":8,
			"componentType":5126,
			"count":24412,
			"max":[
				18.665611267089844,
				11.799650192260742,
				49.68553161621094
			],
			"min":[
				-11.783870697021484,
				-13.999214172363281,
				-2.0051956176757812
			],
			"type":"VEC3"
		},
		{
			"bufferView":9,
			"componentType":5126,
			"count":24412,
			"type":"VEC2"
		},
		{
			"bufferView":10,
			"componentType":5126,
			"count":24412,
			"type":"VEC3"
		},
		{
			"bufferView":11,
			"componentType":5123,
			"count":75102,
			"type":"SCALAR"
		}
	],
	"bufferViews":[
		{
			"buffer":0,
			"byteLength":672504,
			"byteOffset":0,
			"target":34962
		},
		{
			"buffer":0,
			"byteLength":448336,
			"byteOffset":672504,
			"target":34962
		},
		{
			"buffer":0,
			"byteLength":672504,
			"byteOffset":1120840,
			"target":34962
		},
		{
			"buffer":0,
			"byteLength":463368,
			"byteOffset":1793344,
			"target":34963
		},
		{
			"buffer":0,
			"byteLength":540792,
			"byteOffset":2256712,
			"target":34962
		},
		{
			"buffer":0,
			"byteLength":360528,
			"byteOffset":2797504,
			"target":34962
		},
		{
			"buffer":0,
			"byteLength":540792,
			"byteOffset":3158032,
			"target":34962
		},
		{
			"buffer":0,
			"byteLength":303336,
			"byteOffset":3698824,
			"target":34963
		},
		{
			"buffer":0,
			"byteLength":292944,
			"byteOffset":4002160,
			"target":34962
		},
		{
			"buffer":0,
			"byteLength":195296,
			"byteOffset":4295104,
			"target":34962
		},
		{
			"buffer":0,
			"byteLength":292944,
			"byteOffset":4490400,
			"target":34962
		},
		{
			"buffer":0,
			"byteLength":150204,
			"byteOffset":4783344,
			"target":34963
		}
	],
	"samplers":[
		{
			"magFilter":9729,
			"minFilter":9987
		}
	],
	"buffers":[
		{
			"byteLength":4933548,
			"uri":"zoltar.bin"
		}
	]
}
